<?xml version="1.0" encoding="utf-8"?>
<!-- Generator: Adobe Illustrator 25.2.0, SVG Export Plug-In . SVG Version: 6.00 Build 0)  -->
<svg version="1.1" id="Слой_1" xmlns="http://www.w3.org/2000/svg" xmlns:xlink="http://www.w3.org/1999/xlink" x="0px" y="0px"
	 viewBox="0 0 595.3 209.8" enable-background="new 0 0 595.3 209.8" xml:space="preserve">
<g>
	<defs>
		<rect id="SVGID_1_" y="150.5" width="595.3" height="47.5"/>
	</defs>
	<clipPath id="SVGID_2_">
		<use xlink:href="#SVGID_1_"  overflow="visible"/>
	</clipPath>
	<g clip-path="url(#SVGID_2_)">
		<g enable-background="new    ">
			<path fill="#666828" d="M49.9,179.3c-5.7,0-11.3-0.9-16.8-2.6c-5.6-1.7-10.6-4.2-15-7.5c-4.5-3.3-8-7.4-10.7-12.3
				s-4.1-10.5-4.1-16.8c0-5.4,0.9-10.1,2.6-14.3c1.8-4.2,3.9-7.8,6.4-10.8c2.5-3,5-5.4,7.5-7.3c2.5-1.8,4.5-3.1,6-3.7
				c-5.2,4.2-9.2,8.5-12,13c-2.8,4.5-4.7,8.7-5.7,12.8c-1,4.1-1.5,7.5-1.5,10.4c0,6,1.3,11.3,3.9,15.9c2.6,4.7,6,8.6,10.2,11.8
				c4.2,3.2,8.9,5.6,14,7.3c5.1,1.7,10.2,2.5,15.2,2.5c5.5,0,10.9-0.6,16.3-1.9c11.4-2.7,21.6-8.9,30.5-18.8
				c9.9-10.9,18.3-26.8,25-47.7c4.8-15,8.1-25.3,9.8-30.9c1-3.3,1.7-5.6,2-6.8c0.2-0.8,0.3-1.5,0.3-1.9c0-1.3-0.3-2.4-1-3.3
				c-0.7-0.9-1.9-1.5-3.8-1.9c-1.8-0.4-4.4-0.6-7.8-0.6h-5c-10.8,0-20.7,1.5-29.6,4.6c-8.9,3.1-16.6,7.1-23,12.1
				c-6.4,5-11.4,10.6-14.8,16.7c-3.5,6.1-5.2,12.3-5.2,18.4c0,3.6,0.5,7.1,1.5,10.6c1,3.5,2.5,6.6,4.6,9.4s4.6,5,7.7,6.7
				c3.1,1.7,6.7,2.5,10.8,2.5c5.4,0,10.2-1.3,14.4-3.9c4.2-2.6,7.6-6,10-10.1c2.5-4.2,3.7-8.6,3.7-13.2c0-3.5-0.7-7.1-2-10.8
				s-3.1-7.1-5.4-10.1c3.2,3,5.5,6.4,6.9,10c1.4,3.6,2.2,7.2,2.2,10.9c0,5-1.3,9.7-3.9,14.1c-2.6,4.4-6.1,8-10.6,10.7
				c-4.5,2.8-9.6,4.1-15.3,4.1c-4.8,0-9-0.9-12.5-2.6c-3.5-1.8-6.4-4.1-8.7-7c-2.3-2.9-4-6.2-5-9.9s-1.6-7.4-1.6-11.2
				c0-6.4,1.8-12.8,5.4-19.1c3.6-6.3,8.7-12.1,15.3-17.3c6.6-5.2,14.6-9.4,24-12.5c9.3-3.2,19.7-4.7,31.2-4.7h5
				c3.9,0.2,8.5,0.3,13.8,0.4c5.3,0.1,13.9,0.1,25.9,0.1l10,59l35.6-59H220c6.9,0,14.3-0.2,22.4-0.5v1.8c-2.1,0-3.8,0.2-5.1,0.6
				c-1.3,0.4-2.5,1.4-3.6,3.1c-1.1,1.7-2.3,4.3-3.5,8c-1.2,3.7-2.7,8.7-4.5,15.1l-11.4,40.8c-1.4,4.9-2.4,8.7-3.2,11.5
				c-0.7,2.8-1.2,4.9-1.5,6.4c-0.3,1.5-0.4,2.7-0.4,3.9c0,1.7,0.6,2.9,1.9,3.8c1.2,0.8,3.4,1.3,6.5,1.3v1.8
				c-7.6-0.3-16.3-0.5-26-0.5c-6.9,0-14.3,0.1-22.4,0.5V158c2.1,0,3.8-0.2,5.1-0.5c1.3-0.4,2.5-1.4,3.6-3c1.1-1.6,2.2-4.3,3.5-8
				s2.8-8.8,4.6-15.2l17.8-59.9h-0.8l-53.5,88.8h-1.4l-12.9-84.6h-0.8l-11.1,34.1c-8.4,25.9-19.4,44.4-32.8,55.4
				C78.8,174.5,65.3,179.3,49.9,179.3z"/>
			<path fill="#666828" d="M246.1,160.7c-4.7,0-8.9-0.8-12.8-2.3c-3.9-1.5-6.9-3.9-9.3-7s-3.5-7.2-3.5-12.1c0-3.3,0.8-6.9,2.3-10.6
				c1.6-3.7,3.9-7.2,7.1-10.4s7.1-5.9,11.9-7.9c4.8-2.1,10.4-3.1,16.9-3.1c5.1,0,9.1,1.2,11.8,3.6c2.7,2.4,4.1,5.4,4.1,9.1
				c0,3.2-0.7,5.8-2.2,7.9c-1.5,2.1-3.3,3.7-5.6,5c-2.3,1.2-4.8,2.2-7.4,2.8c-2.6,0.6-5.1,1-7.5,1.2c-2.4,0.2-4.4,0.3-6,0.3
				c0.1,4.1,0.7,7.3,2,9.6s2.8,4,4.8,5c2,1,4.1,1.4,6.4,1.4c4.6,0,9.2-2.1,13.8-6.2c4.6-4.2,8-10.1,10.2-17.9
				c-0.3,3.3-1.3,6.8-3,10.5c-1.7,3.7-4.1,7.1-7.2,10.3s-6.9,5.9-11.4,7.9C257,159.7,251.9,160.7,246.1,160.7z M245.9,135.2
				c10.5-5.4,15.8-12.6,15.8-21.5c0-3-1-4.6-3-4.7c-3.1,0-5.9,2.3-8.5,7C247.6,120.6,246.2,127,245.9,135.2z"/>
			<path fill="#666828" d="M287,160.7c-3.8,0-6.8-0.8-9-2.3c-2.2-1.5-3.3-4.1-3.3-7.9c0-3,1-9.1,3.1-18.4c2.1-9.3,5.1-19.6,9.1-31
				c4-11.4,9-22.2,14.9-32.3c-7.3-1.7-14.2-4.4-20.6-8.1c-6.4-3.7-12.8-7.8-19.1-12.2c-4.4-3.1-8.9-6.1-13.6-9
				c-4.6-2.9-9.5-5.6-14.6-7.9c-5.1-2.4-10.6-4.3-16.5-5.7c-5.9-1.4-12.2-2.2-19.1-2.2c-7.6,0-14.6,1.1-20.9,3.2
				c-6.3,2.1-11,5.2-13.9,9.3c0-1.6,1.6-3.6,4.7-5.8c3.1-2.2,7.3-4.2,12.6-5.9c5.3-1.7,11.1-2.5,17.6-2.5c7.9,0,15.3,0.8,22,2.4
				c6.7,1.6,13,3.8,18.8,6.4c5.8,2.7,11.3,5.6,16.5,8.8c5.2,3.2,10.1,6.4,14.8,9.6c5.6,3.9,11,7.4,16.3,10.5
				c5.3,3.1,10.7,5.5,16.2,7.1c3.1-5.1,6.5-9.6,10.2-13.5c3.7-3.9,7.6-7,11.8-9.3c4.2-2.3,8.6-3.4,13.2-3.4c2.6,0,4.7,0.8,6.2,2.3
				c1.5,1.5,2.3,3.6,2.3,6.1c0,3.2-0.9,6-2.6,8.4c-1.7,2.4-3.9,4.4-6.6,6.1c-2.7,1.7-5.5,3-8.6,4c-3,1-5.9,1.7-8.6,2.2
				c-3.7,10.6-7,22.2-9.8,34.7l-1.5,6.4c-2.1,8.5-3.9,16.4-5.6,23.8c-1.7,7.4-2.5,11.9-2.5,13.5c0,2.8,1.4,4.2,4.1,4.2
				c2.1,0,4.4-1.3,6.8-3.9c2.4-2.6,4.8-6.9,7.1-13c0,3-0.7,5.9-2.2,8.9c-1.5,3-3.6,5.7-6.4,8.2c-2.8,2.5-6.1,4.5-10,6
				C296.2,159.9,291.9,160.7,287,160.7z M320.7,68c3.9-0.6,7.7-1.8,11.4-3.5s6.7-3.8,9.2-6.4c2.4-2.6,3.7-5.6,3.7-9.1
				c0-1.8-0.5-3.3-1.5-4.3c-1-1.1-2.5-1.6-4.4-1.6C333,43.1,326.9,51.4,320.7,68z"/>
			<path fill="#666828" d="M338.1,160.7c-4.7,0-8.9-0.8-12.8-2.3c-3.9-1.5-6.9-3.9-9.3-7s-3.5-7.2-3.5-12.1c0-3.3,0.8-6.9,2.3-10.6
				c1.6-3.7,3.9-7.2,7.1-10.4s7.1-5.9,11.9-7.9c4.8-2.1,10.4-3.1,16.9-3.1c1.9,0,3.8,0.3,5.9,0.8c2,0.5,3.4,1.2,4.1,2
				c-4.2,0-8,1.3-11.5,4c-3.5,2.6-6.2,6.6-8.3,11.9c-2.1,5.3-3.1,11.9-3.1,19.8c0,3.5,0.2,6.1,0.6,7.9c0.4,1.8,1,3.1,1.8,3.7
				c0.8,0.7,1.9,1,3.2,1c1.5,0,2.8-0.9,4-2.6c1.2-1.8,2.2-4.1,3-6.9s1.5-6,2-9.4c-2-1.5-3.5-3.3-4.6-5.5c-1.1-2.2-1.6-4.7-1.6-7.3
				c0-2.6,0.5-4.8,1.5-6.7c1-1.8,2.2-3.3,3.8-4.5c1.5-1.2,3.2-2,4.9-2.5s3.4-0.8,4.9-0.8c3.9,0,7.1,1.4,9.6,4.2
				c2.5,2.8,3.7,6.5,3.7,10.9c0,3.5-0.5,7-1.5,10.4c6.9-3,12.3-7.6,16.2-13.8c-0.7,3.1-2.5,6.1-5.5,9.1c-3,3-6.8,5.4-11.3,7.2
				c-1.5,3.9-3.7,7.5-6.7,10.5s-6.8,5.5-11.4,7.3S344.4,160.7,338.1,160.7z M352.6,137.7c0.3-3.2,0.5-6.3,0.5-9.3
				c0-4.3-0.8-6.5-2.5-6.5c-0.8,0-1.5,0.5-1.9,1.4c-0.5,1-0.7,2-0.7,3.2C347.9,131.8,349.5,135.5,352.6,137.7z"/>
			<path fill="#666828" d="M423.1,160.7c-3.8,0-6.8-0.9-9-2.7c-2.2-1.8-3.3-4.1-3.3-6.9c0-2.4,0.4-4.8,1.3-7.4
				c0.8-2.5,1.8-5.1,2.8-7.6c0.9-2.3,1.7-4.4,2.4-6.5c0.7-2.1,1.1-4,1.1-5.7c0-2.1-0.8-3.2-2.5-3.2c-2.3,0-5.2,4.6-8.7,13.8
				c-2.8,7.3-5.4,15.5-7.8,24.6c-2.7,0.6-5,1-6.9,1.3c-1.9,0.3-4,0.4-6.1,0.4c-3.3,0-5.5-0.7-6.8-2.2c-1.3-1.5-1.9-3.5-1.9-6.1
				c0-5,1.4-11.7,4.3-20c2.9-8.4,6.1-14.8,9.9-19.1c2-2.1,5-3.7,9-4.5c4-0.9,9.3-1.3,15.7-1.3c-5.6,9.5-9.1,17.8-10.7,25h0.8
				c3.3-8.8,7.1-15.2,11.4-19.1c4.3-3.9,9.2-5.9,14.5-5.9c1.9,0,3.7,0.4,5.4,1.2c1.7,0.8,3,2.1,4,3.8c1,1.7,1.5,3.9,1.5,6.5
				c0,3.1-0.4,6.1-1.1,8.9c-0.8,2.8-1.6,5.4-2.5,8c-0.8,2.2-1.5,4.3-2.1,6.4c-0.6,2.1-0.9,4.1-0.9,6.1c0,2.7,1.3,4.1,4,4.1
				c2.1,0,4.3-1.3,6.7-3.8c2.4-2.5,4.7-6.8,7-12.9c0,2.9-0.7,5.9-2.2,8.8c-1.5,3-3.5,5.7-6.3,8.1c-2.7,2.4-6,4.4-9.8,5.9
				C432.1,159.9,427.8,160.7,423.1,160.7z"/>
			<path fill="#666828" d="M535.8,166.7c-7.2,0-14.5-1.4-22.1-4.1c-7.5-2.7-13.9-6.9-18.9-12.6c-4.4,3.4-9,6.2-13.9,8.2
				c-4.8,2-9.3,3.1-13.4,3.1c-7.7,0-12.9-1.6-15.8-4.8c-2-2.2-3-5.1-3-8.7c0-3.8,1.3-9.5,3.8-17.1c2.5-7.6,5.1-13.4,7.8-17.5
				c1.6-2.2,4.3-3.6,8.1-4.3c3.8-0.7,8.7-1.1,14.6-1.1c-1.2,3.3-2.7,7.3-4.3,12.2c-1.7,4.9-3.1,9.8-4.4,14.8c-1.3,5-1.9,9-1.9,12.2
				c0,1.5,0.1,2.9,0.5,4.1c0.3,1.2,1,2.2,2,3c1,0.7,2.7,1.1,4.9,1.1c3.5,0,8.1-2.1,13.7-6.4c-4.5-5.8-6.8-12.6-6.8-20.3
				c0-4.3,0.7-7.8,2.3-10.7c1.5-2.8,3.5-4.9,5.9-6.3c2.4-1.4,4.9-2.1,7.6-2.1c3,0,5.4,1.1,7.2,3.3c1.8,2.2,2.7,5.2,2.7,9
				c0,4.8-1.4,9.5-4.3,14.2s-6.6,8.9-11,12.6c3.1,3.9,6.9,7,11.3,9.5c4.4,2.5,9,4.3,13.8,5.5c4.8,1.2,9.4,1.8,13.7,1.8
				c8.5,0,16.1-1.2,22.9-3.5c6.8-2.4,12.5-5.6,17.2-9.7c4.7-4.1,8.4-8.9,10.8-14.3c2.5-5.4,3.7-11.2,3.7-17.3
				c0-6.4-1.4-12.3-4.2-17.6c-2.8-5.4-6.5-10-11.1-13.8c-4.6-3.9-9.8-6.8-15.5-8.7c6.2,2,11.7,4.8,16.6,8.6
				c4.8,3.8,8.7,8.3,11.5,13.6c2.8,5.3,4.2,11.3,4.2,18c0,6.3-1.3,12.3-3.9,17.9c-2.6,5.6-6.3,10.5-11.1,14.8
				c-4.8,4.2-10.7,7.6-17.7,10C552.4,165.5,544.6,166.7,535.8,166.7z M474.1,103.1c-2.5,0-4.4-0.5-5.9-1.4s-2.5-2-3.1-3.4
				c-0.6-1.4-0.9-2.8-0.9-4.3c0-1.8,0.5-3.7,1.5-5.6c1-1.9,2.5-3.4,4.6-4.6c2.1-1.2,4.8-1.8,8.1-1.8c2.4,0,4.4,0.5,5.8,1.4
				c1.4,0.9,2.4,2.1,3,3.5c0.6,1.4,0.9,2.9,0.9,4.4c0,1.6-0.5,3.4-1.4,5.2c-0.9,1.8-2.4,3.4-4.4,4.7
				C480.2,102.4,477.5,103.1,474.1,103.1z M495.9,146.9c2.7-2.2,5.1-4.7,7.4-7.5c2.3-2.8,4.1-5.7,5.5-8.8c1.4-3.1,2.1-6.1,2.1-9.1
				c0-3.3-0.8-5.9-2.3-7.8c-1.5-1.9-3.5-2.9-6-2.9c-1.8,0-3.7,0.6-5.7,1.9c-2,1.3-3.6,3.2-5,5.9c-1.4,2.6-2,5.9-2,9.8
				C489.9,135.3,491.9,141.5,495.9,146.9z"/>
		</g>
	</g>
</g>
<g>
	<defs>
		<rect id="SVGID_3_" y="150.5" width="595.3" height="47.5"/>
	</defs>
	<clipPath id="SVGID_4_">
		<use xlink:href="#SVGID_3_"  overflow="visible"/>
	</clipPath>
	<path clip-path="url(#SVGID_4_)" fill="none" d="M0,153.4h595.3V198H0V153.4z"/>
</g>
<g>
	<g>
		<defs>
			<rect id="SVGID_5_" y="137.2" width="595.3" height="13.3"/>
		</defs>
		<clipPath id="SVGID_6_">
			<use xlink:href="#SVGID_5_"  overflow="visible"/>
		</clipPath>
		<g clip-path="url(#SVGID_6_)">
			<g enable-background="new    ">
				<path fill="#DBDB70" d="M50,179.3c-5.7,0-11.3-0.9-16.8-2.6c-5.6-1.7-10.6-4.2-15-7.5c-4.5-3.3-8-7.4-10.7-12.3
					s-4.1-10.5-4.1-16.8c0-5.4,0.9-10.1,2.6-14.3c1.8-4.2,3.9-7.8,6.4-10.8c2.5-3,5-5.4,7.5-7.3c2.5-1.8,4.5-3.1,6-3.7
					c-5.2,4.2-9.2,8.5-12,13c-2.8,4.5-4.7,8.7-5.7,12.8c-1,4.1-1.5,7.5-1.5,10.4c0,6,1.3,11.3,3.9,15.9c2.6,4.7,6,8.6,10.2,11.8
					c4.2,3.2,8.9,5.6,14,7.3c5.1,1.7,10.2,2.5,15.2,2.5c5.5,0,10.9-0.6,16.3-1.9c11.4-2.7,21.6-8.9,30.5-18.8
					c9.9-10.9,18.3-26.8,25-47.7c4.8-15,8.1-25.3,9.8-30.9c1-3.3,1.7-5.6,2-6.8c0.2-0.8,0.3-1.5,0.3-1.9c0-1.3-0.3-2.4-1-3.3
					c-0.7-0.9-1.9-1.5-3.8-1.9c-1.8-0.4-4.4-0.6-7.8-0.6h-5c-10.8,0-20.7,1.5-29.6,4.6c-8.9,3.1-16.6,7.1-23,12.1
					c-6.4,5-11.4,10.6-14.8,16.7c-3.5,6.1-5.2,12.3-5.2,18.4c0,3.6,0.5,7.1,1.5,10.6c1,3.5,2.5,6.6,4.6,9.4s4.6,5,7.7,6.7
					c3.1,1.7,6.7,2.5,10.8,2.5c5.4,0,10.2-1.3,14.4-3.9c4.2-2.6,7.6-6,10-10.1c2.5-4.2,3.7-8.6,3.7-13.2c0-3.5-0.7-7.1-2-10.8
					s-3.1-7.1-5.4-10.1c3.2,3,5.5,6.4,6.9,10c1.4,3.6,2.2,7.2,2.2,10.9c0,5-1.3,9.7-3.9,14.1c-2.6,4.4-6.1,8-10.6,10.7
					c-4.5,2.8-9.6,4.1-15.3,4.1c-4.8,0-9-0.9-12.5-2.6c-3.5-1.8-6.4-4.1-8.7-7c-2.3-2.9-4-6.2-5-9.9s-1.6-7.4-1.6-11.2
					c0-6.4,1.8-12.8,5.4-19.1c3.6-6.3,8.7-12.1,15.3-17.3c6.6-5.2,14.6-9.4,24-12.5c9.3-3.2,19.7-4.7,31.2-4.7h5
					c3.9,0.2,8.5,0.3,13.8,0.4c5.3,0.1,13.9,0.1,25.9,0.1l10,59l35.6-59h13.6c6.9,0,14.3-0.2,22.4-0.5v1.8c-2.1,0-3.8,0.2-5.1,0.6
					c-1.3,0.4-2.5,1.4-3.6,3.1c-1.1,1.7-2.3,4.3-3.5,8c-1.2,3.7-2.7,8.7-4.5,15.1l-11.4,40.8c-1.4,4.9-2.4,8.7-3.2,11.5
					c-0.7,2.8-1.2,4.9-1.5,6.4c-0.3,1.5-0.4,2.7-0.4,3.9c0,1.7,0.6,2.9,1.9,3.8c1.2,0.8,3.4,1.3,6.5,1.3v1.8
					c-7.6-0.3-16.3-0.5-26-0.5c-6.9,0-14.3,0.1-22.4,0.5V158c2.1,0,3.8-0.2,5.1-0.5c1.3-0.4,2.5-1.4,3.6-3c1.1-1.6,2.2-4.3,3.5-8
					s2.8-8.8,4.6-15.2l17.8-59.9h-0.8l-53.5,88.8H148l-12.9-84.6h-0.8l-11.1,34.1c-8.4,25.9-19.4,44.4-32.8,55.4
					C78.9,174.5,65.4,179.3,50,179.3z"/>
				<path fill="#DBDB70" d="M246.1,160.7c-4.7,0-8.9-0.8-12.8-2.3c-3.9-1.5-6.9-3.9-9.3-7s-3.5-7.2-3.5-12.1c0-3.3,0.8-6.9,2.3-10.6
					c1.6-3.7,3.9-7.2,7.1-10.4s7.1-5.9,11.9-7.9c4.8-2.1,10.4-3.1,16.9-3.1c5.1,0,9.1,1.2,11.8,3.6c2.7,2.4,4.1,5.4,4.1,9.1
					c0,3.2-0.7,5.8-2.2,7.9c-1.5,2.1-3.3,3.7-5.6,5c-2.3,1.2-4.8,2.2-7.4,2.8c-2.6,0.6-5.1,1-7.5,1.2c-2.4,0.2-4.4,0.3-6,0.3
					c0.1,4.1,0.7,7.3,2,9.6s2.8,4,4.8,5c2,1,4.1,1.4,6.4,1.4c4.6,0,9.2-2.1,13.8-6.2c4.6-4.2,8-10.1,10.2-17.9
					c-0.3,3.3-1.3,6.8-3,10.5c-1.7,3.7-4.1,7.1-7.2,10.3s-6.9,5.9-11.4,7.9C257,159.7,251.9,160.7,246.1,160.7z M245.9,135.2
					c10.5-5.4,15.8-12.6,15.8-21.5c0-3-1-4.6-3-4.7c-3.1,0-5.9,2.3-8.5,7C247.7,120.6,246.2,127,245.9,135.2z"/>
				<path fill="#DBDB70" d="M287.1,160.7c-3.8,0-6.8-0.8-9-2.3c-2.2-1.5-3.3-4.1-3.3-7.9c0-3,1-9.1,3.1-18.4
					c2.1-9.3,5.1-19.6,9.1-31c4-11.4,9-22.2,14.9-32.3c-7.3-1.7-14.2-4.4-20.6-8.1c-6.4-3.7-12.8-7.8-19.1-12.2
					c-4.4-3.1-8.9-6.1-13.6-9c-4.6-2.9-9.5-5.6-14.6-7.9c-5.1-2.4-10.6-4.3-16.5-5.7c-5.9-1.4-12.2-2.2-19.1-2.2
					c-7.6,0-14.6,1.1-20.9,3.2c-6.3,2.1-11,5.2-13.9,9.3c0-1.6,1.6-3.6,4.7-5.8c3.1-2.2,7.3-4.2,12.6-5.9c5.3-1.7,11.1-2.5,17.6-2.5
					c7.9,0,15.3,0.8,22,2.4c6.7,1.6,13,3.8,18.8,6.4c5.8,2.7,11.3,5.6,16.5,8.8c5.2,3.2,10.1,6.4,14.8,9.6c5.6,3.9,11,7.4,16.3,10.5
					c5.3,3.1,10.7,5.5,16.2,7.1c3.1-5.1,6.5-9.6,10.2-13.5c3.7-3.9,7.6-7,11.8-9.3c4.2-2.3,8.6-3.4,13.2-3.4c2.6,0,4.7,0.8,6.2,2.3
					c1.5,1.5,2.3,3.6,2.3,6.1c0,3.2-0.9,6-2.6,8.4c-1.7,2.4-3.9,4.4-6.6,6.1c-2.7,1.7-5.5,3-8.6,4c-3,1-5.9,1.7-8.6,2.2
					c-3.7,10.6-7,22.2-9.8,34.7l-1.5,6.4c-2.1,8.5-3.9,16.4-5.6,23.8c-1.7,7.4-2.5,11.9-2.5,13.5c0,2.8,1.4,4.2,4.1,4.2
					c2.1,0,4.4-1.3,6.8-3.9c2.4-2.6,4.8-6.9,7.1-13c0,3-0.7,5.9-2.2,8.9c-1.5,3-3.6,5.7-6.4,8.2c-2.8,2.5-6.1,4.5-10,6
					C296.3,159.9,291.9,160.7,287.1,160.7z M320.8,68c3.9-0.6,7.7-1.8,11.4-3.5s6.7-3.8,9.2-6.4c2.4-2.6,3.7-5.6,3.7-9.1
					c0-1.8-0.5-3.3-1.5-4.3c-1-1.1-2.5-1.6-4.4-1.6C333,43.1,326.9,51.4,320.8,68z"/>
				<path fill="#DBDB70" d="M338.2,160.7c-4.7,0-8.9-0.8-12.8-2.3c-3.9-1.5-6.9-3.9-9.3-7s-3.5-7.2-3.5-12.1c0-3.3,0.8-6.9,2.3-10.6
					c1.6-3.7,3.9-7.2,7.1-10.4s7.1-5.9,11.9-7.9c4.8-2.1,10.4-3.1,16.9-3.1c1.9,0,3.8,0.3,5.9,0.8c2,0.5,3.4,1.2,4.1,2
					c-4.2,0-8,1.3-11.5,4c-3.5,2.6-6.2,6.6-8.3,11.9c-2.1,5.3-3.1,11.9-3.1,19.8c0,3.5,0.2,6.1,0.6,7.9c0.4,1.8,1,3.1,1.8,3.7
					c0.8,0.7,1.9,1,3.2,1c1.5,0,2.8-0.9,4-2.6c1.2-1.8,2.2-4.1,3-6.9s1.5-6,2-9.4c-2-1.5-3.5-3.3-4.6-5.5c-1.1-2.2-1.6-4.7-1.6-7.3
					c0-2.6,0.5-4.8,1.5-6.7c1-1.8,2.2-3.3,3.8-4.5c1.5-1.2,3.2-2,4.9-2.5s3.4-0.8,4.9-0.8c3.9,0,7.1,1.4,9.6,4.2
					c2.5,2.8,3.7,6.5,3.7,10.9c0,3.5-0.5,7-1.5,10.4c6.9-3,12.3-7.6,16.2-13.8c-0.7,3.1-2.5,6.1-5.5,9.1c-3,3-6.8,5.4-11.3,7.2
					c-1.5,3.9-3.7,7.5-6.7,10.5s-6.8,5.5-11.4,7.3S344.4,160.7,338.2,160.7z M352.6,137.7c0.3-3.2,0.5-6.3,0.5-9.3
					c0-4.3-0.8-6.5-2.5-6.5c-0.8,0-1.5,0.5-1.9,1.4c-0.5,1-0.7,2-0.7,3.2C348,131.8,349.6,135.5,352.6,137.7z"/>
				<path fill="#DBDB70" d="M423.1,160.7c-3.8,0-6.8-0.9-9-2.7c-2.2-1.8-3.3-4.1-3.3-6.9c0-2.4,0.4-4.8,1.3-7.4
					c0.8-2.5,1.8-5.1,2.8-7.6c0.9-2.3,1.7-4.4,2.4-6.5c0.7-2.1,1.1-4,1.1-5.7c0-2.1-0.8-3.2-2.5-3.2c-2.3,0-5.2,4.6-8.7,13.8
					c-2.8,7.3-5.4,15.5-7.8,24.6c-2.7,0.6-5,1-6.9,1.3c-1.9,0.3-4,0.4-6.1,0.4c-3.3,0-5.5-0.7-6.8-2.2c-1.3-1.5-1.9-3.5-1.9-6.1
					c0-5,1.4-11.7,4.3-20c2.9-8.4,6.1-14.8,9.9-19.1c2-2.1,5-3.7,9-4.5c4-0.9,9.3-1.3,15.7-1.3c-5.6,9.5-9.1,17.8-10.7,25h0.8
					c3.3-8.8,7.1-15.2,11.4-19.1c4.3-3.9,9.2-5.9,14.5-5.9c1.9,0,3.7,0.4,5.4,1.2c1.7,0.8,3,2.1,4,3.8c1,1.7,1.5,3.9,1.5,6.5
					c0,3.1-0.4,6.1-1.1,8.9c-0.8,2.8-1.6,5.4-2.5,8c-0.8,2.2-1.5,4.3-2.1,6.4c-0.6,2.1-0.9,4.1-0.9,6.1c0,2.7,1.3,4.1,4,4.1
					c2.1,0,4.3-1.3,6.7-3.8c2.4-2.5,4.7-6.8,7-12.9c0,2.9-0.7,5.9-2.2,8.8c-1.5,3-3.5,5.7-6.3,8.1c-2.7,2.4-6,4.4-9.8,5.9
					C432.2,159.9,427.9,160.7,423.1,160.7z"/>
				<path fill="#DBDB70" d="M535.9,166.7c-7.2,0-14.5-1.4-22.1-4.1c-7.5-2.7-13.9-6.9-18.9-12.6c-4.4,3.4-9,6.2-13.9,8.2
					c-4.8,2-9.3,3.1-13.4,3.1c-7.7,0-12.9-1.6-15.8-4.8c-2-2.2-3-5.1-3-8.7c0-3.8,1.3-9.5,3.8-17.1c2.5-7.6,5.1-13.4,7.8-17.5
					c1.6-2.2,4.3-3.6,8.1-4.3c3.8-0.7,8.7-1.1,14.6-1.1c-1.2,3.3-2.7,7.3-4.3,12.2c-1.7,4.9-3.1,9.8-4.4,14.8c-1.3,5-1.9,9-1.9,12.2
					c0,1.5,0.1,2.9,0.5,4.1c0.3,1.2,1,2.2,2,3c1,0.7,2.7,1.1,4.9,1.1c3.5,0,8.1-2.1,13.7-6.4c-4.5-5.8-6.8-12.6-6.8-20.3
					c0-4.3,0.7-7.8,2.3-10.7c1.5-2.8,3.5-4.9,5.9-6.3c2.4-1.4,4.9-2.1,7.6-2.1c3,0,5.4,1.1,7.2,3.3c1.8,2.2,2.7,5.2,2.7,9
					c0,4.8-1.4,9.5-4.3,14.2s-6.6,8.9-11,12.6c3.1,3.9,6.9,7,11.3,9.5c4.4,2.5,9,4.3,13.8,5.5c4.8,1.2,9.4,1.8,13.7,1.8
					c8.5,0,16.1-1.2,22.9-3.5c6.8-2.4,12.5-5.6,17.2-9.7c4.7-4.1,8.4-8.9,10.8-14.3c2.5-5.4,3.7-11.2,3.7-17.3
					c0-6.4-1.4-12.3-4.2-17.6c-2.8-5.4-6.5-10-11.1-13.8c-4.6-3.9-9.8-6.8-15.5-8.7c6.2,2,11.7,4.8,16.6,8.6
					c4.8,3.8,8.7,8.3,11.5,13.6c2.8,5.3,4.2,11.3,4.2,18c0,6.3-1.3,12.3-3.9,17.9c-2.6,5.6-6.3,10.5-11.1,14.8
					c-4.8,4.2-10.7,7.6-17.7,10C552.5,165.5,544.6,166.7,535.9,166.7z M474.1,103.1c-2.5,0-4.4-0.5-5.9-1.4s-2.5-2-3.1-3.4
					c-0.6-1.4-0.9-2.8-0.9-4.3c0-1.8,0.5-3.7,1.5-5.6c1-1.9,2.5-3.4,4.6-4.6c2.1-1.2,4.8-1.8,8.1-1.8c2.4,0,4.4,0.5,5.8,1.4
					c1.4,0.9,2.4,2.1,3,3.5c0.6,1.4,0.9,2.9,0.9,4.4c0,1.6-0.5,3.4-1.4,5.2c-0.9,1.8-2.4,3.4-4.4,4.7
					C480.3,102.4,477.6,103.1,474.1,103.1z M496,146.9c2.7-2.2,5.1-4.7,7.4-7.5c2.3-2.8,4.1-5.7,5.5-8.8c1.4-3.1,2.1-6.1,2.1-9.1
					c0-3.3-0.8-5.9-2.3-7.8c-1.5-1.9-3.5-2.9-6-2.9c-1.8,0-3.7,0.6-5.7,1.9c-2,1.3-3.6,3.2-5,5.9c-1.4,2.6-2,5.9-2,9.8
					C490,135.3,492,141.5,496,146.9z"/>
			</g>
		</g>
	</g>
</g>
<g>
	<g>
		<defs>
			<rect id="SVGID_7_" y="11.3" width="595.3" height="125.9"/>
		</defs>
		<clipPath id="SVGID_8_">
			<use xlink:href="#SVGID_7_"  overflow="visible"/>
		</clipPath>
		<g clip-path="url(#SVGID_8_)">
			<g enable-background="new    ">
				<path fill="#C6515A" d="M50,179.3c-5.7,0-11.3-0.9-16.8-2.6c-5.6-1.7-10.6-4.2-15-7.5c-4.5-3.3-8-7.4-10.7-12.3
					s-4.1-10.5-4.1-16.8c0-5.4,0.9-10.1,2.6-14.3c1.8-4.2,3.9-7.8,6.4-10.8c2.5-3,5-5.4,7.5-7.3c2.5-1.8,4.5-3.1,6-3.7
					c-5.2,4.2-9.2,8.5-12,13c-2.8,4.5-4.7,8.7-5.7,12.8c-1,4.1-1.5,7.5-1.5,10.4c0,6,1.3,11.3,3.9,15.9c2.6,4.7,6,8.6,10.2,11.8
					c4.2,3.2,8.9,5.6,14,7.3c5.1,1.7,10.2,2.5,15.2,2.5c5.5,0,10.9-0.6,16.3-1.9c11.4-2.7,21.6-8.9,30.5-18.8
					c9.9-10.9,18.3-26.8,25-47.7c4.8-15,8.1-25.3,9.8-30.9c1-3.3,1.7-5.6,2-6.8c0.2-0.8,0.3-1.5,0.3-1.9c0-1.3-0.3-2.4-1-3.3
					c-0.7-0.9-1.9-1.5-3.8-1.9c-1.8-0.4-4.4-0.6-7.8-0.6h-5c-10.8,0-20.7,1.5-29.6,4.6c-8.9,3.1-16.6,7.1-23,12.1
					c-6.4,5-11.4,10.6-14.8,16.7c-3.5,6.1-5.2,12.3-5.2,18.4c0,3.6,0.5,7.1,1.5,10.6c1,3.5,2.5,6.6,4.6,9.4s4.6,5,7.7,6.7
					c3.1,1.7,6.7,2.5,10.8,2.5c5.4,0,10.2-1.3,14.4-3.9c4.2-2.6,7.6-6,10-10.1c2.5-4.2,3.7-8.6,3.7-13.2c0-3.5-0.7-7.1-2-10.8
					s-3.1-7.1-5.4-10.1c3.2,3,5.5,6.4,6.9,10c1.4,3.6,2.2,7.2,2.2,10.9c0,5-1.3,9.7-3.9,14.1c-2.6,4.4-6.1,8-10.6,10.7
					c-4.5,2.8-9.6,4.1-15.3,4.1c-4.8,0-9-0.9-12.5-2.6c-3.5-1.8-6.4-4.1-8.7-7c-2.3-2.9-4-6.2-5-9.9s-1.6-7.4-1.6-11.2
					c0-6.4,1.8-12.8,5.4-19.1c3.6-6.3,8.7-12.1,15.3-17.3c6.6-5.2,14.6-9.4,24-12.5c9.3-3.2,19.7-4.7,31.2-4.7h5
					c3.9,0.2,8.5,0.3,13.8,0.4c5.3,0.1,13.9,0.1,25.9,0.1l10,59l35.6-59h13.6c6.9,0,14.3-0.2,22.4-0.5v1.8c-2.1,0-3.8,0.2-5.1,0.6
					c-1.3,0.4-2.5,1.4-3.6,3.1c-1.1,1.7-2.3,4.3-3.5,8c-1.2,3.7-2.7,8.7-4.5,15.1l-11.4,40.8c-1.4,4.9-2.4,8.7-3.2,11.5
					c-0.7,2.8-1.2,4.9-1.5,6.4c-0.3,1.5-0.4,2.7-0.4,3.9c0,1.7,0.6,2.9,1.9,3.8c1.2,0.8,3.4,1.3,6.5,1.3v1.8
					c-7.6-0.3-16.3-0.5-26-0.5c-6.9,0-14.3,0.1-22.4,0.5V158c2.1,0,3.8-0.2,5.1-0.5c1.3-0.4,2.5-1.4,3.6-3c1.1-1.6,2.2-4.3,3.5-8
					s2.8-8.8,4.6-15.2l17.8-59.9h-0.8l-53.5,88.8H148l-12.9-84.6h-0.8l-11.1,34.1c-8.4,25.9-19.4,44.4-32.8,55.4
					C78.9,174.5,65.4,179.3,50,179.3z"/>
				<path fill="#C6515A" d="M246.1,160.7c-4.7,0-8.9-0.8-12.8-2.3c-3.9-1.5-6.9-3.9-9.3-7s-3.5-7.2-3.5-12.1c0-3.3,0.8-6.9,2.3-10.6
					c1.6-3.7,3.9-7.2,7.1-10.4s7.1-5.9,11.9-7.9c4.8-2.1,10.4-3.1,16.9-3.1c5.1,0,9.1,1.2,11.8,3.6c2.7,2.4,4.1,5.4,4.1,9.1
					c0,3.2-0.7,5.8-2.2,7.9c-1.5,2.1-3.3,3.7-5.6,5c-2.3,1.2-4.8,2.2-7.4,2.8c-2.6,0.6-5.1,1-7.5,1.2c-2.4,0.2-4.4,0.3-6,0.3
					c0.1,4.1,0.7,7.3,2,9.6s2.8,4,4.8,5c2,1,4.1,1.4,6.4,1.4c4.6,0,9.2-2.1,13.8-6.2c4.6-4.2,8-10.1,10.2-17.9
					c-0.3,3.3-1.3,6.8-3,10.5c-1.7,3.7-4.1,7.1-7.2,10.3s-6.9,5.9-11.4,7.9C257,159.7,251.9,160.7,246.1,160.7z M245.9,135.2
					c10.5-5.4,15.8-12.6,15.8-21.5c0-3-1-4.6-3-4.7c-3.1,0-5.9,2.3-8.5,7C247.7,120.6,246.2,127,245.9,135.2z"/>
				<path fill="#C6515A" d="M287.1,160.7c-3.8,0-6.8-0.8-9-2.3c-2.2-1.5-3.3-4.1-3.3-7.9c0-3,1-9.1,3.1-18.4
					c2.1-9.3,5.1-19.6,9.1-31c4-11.4,9-22.2,14.9-32.3c-7.3-1.7-14.2-4.4-20.6-8.1c-6.4-3.7-12.8-7.8-19.1-12.2
					c-4.4-3.1-8.9-6.1-13.6-9c-4.6-2.9-9.5-5.6-14.6-7.9c-5.1-2.4-10.6-4.3-16.5-5.7c-5.9-1.4-12.2-2.2-19.1-2.2
					c-7.6,0-14.6,1.1-20.9,3.2c-6.3,2.1-11,5.2-13.9,9.3c0-1.6,1.6-3.6,4.7-5.8c3.1-2.2,7.3-4.2,12.6-5.9c5.3-1.7,11.1-2.5,17.6-2.5
					c7.9,0,15.3,0.8,22,2.4c6.7,1.6,13,3.8,18.8,6.4c5.8,2.7,11.3,5.6,16.5,8.8c5.2,3.2,10.1,6.4,14.8,9.6c5.6,3.9,11,7.4,16.3,10.5
					c5.3,3.1,10.7,5.5,16.2,7.1c3.1-5.1,6.5-9.6,10.2-13.5c3.7-3.9,7.6-7,11.8-9.3c4.2-2.3,8.6-3.4,13.2-3.4c2.6,0,4.7,0.8,6.2,2.3
					c1.5,1.5,2.3,3.6,2.3,6.1c0,3.2-0.9,6-2.6,8.4c-1.7,2.4-3.9,4.4-6.6,6.1c-2.7,1.7-5.5,3-8.6,4c-3,1-5.9,1.7-8.6,2.2
					c-3.7,10.6-7,22.2-9.8,34.7l-1.5,6.4c-2.1,8.5-3.9,16.4-5.6,23.8c-1.7,7.4-2.5,11.9-2.5,13.5c0,2.8,1.4,4.2,4.1,4.2
					c2.1,0,4.4-1.3,6.8-3.9c2.4-2.6,4.8-6.9,7.1-13c0,3-0.7,5.9-2.2,8.9c-1.5,3-3.6,5.7-6.4,8.2c-2.8,2.5-6.1,4.5-10,6
					C296.3,159.9,291.9,160.7,287.1,160.7z M320.8,68c3.9-0.6,7.7-1.8,11.4-3.5s6.7-3.8,9.2-6.4c2.4-2.6,3.7-5.6,3.7-9.1
					c0-1.8-0.5-3.3-1.5-4.3c-1-1.1-2.5-1.6-4.4-1.6C333,43.1,326.9,51.4,320.8,68z"/>
				<path fill="#C6515A" d="M338.2,160.7c-4.7,0-8.9-0.8-12.8-2.3c-3.9-1.5-6.9-3.9-9.3-7s-3.5-7.2-3.5-12.1c0-3.3,0.8-6.9,2.3-10.6
					c1.6-3.7,3.9-7.2,7.1-10.4s7.1-5.9,11.9-7.9c4.8-2.1,10.4-3.1,16.9-3.1c1.9,0,3.8,0.3,5.9,0.8c2,0.5,3.4,1.2,4.1,2
					c-4.2,0-8,1.3-11.5,4c-3.5,2.6-6.2,6.6-8.3,11.9c-2.1,5.3-3.1,11.9-3.1,19.8c0,3.5,0.2,6.1,0.6,7.9c0.4,1.8,1,3.1,1.8,3.7
					c0.8,0.7,1.9,1,3.2,1c1.5,0,2.8-0.9,4-2.6c1.2-1.8,2.2-4.1,3-6.9s1.5-6,2-9.4c-2-1.5-3.5-3.3-4.6-5.5c-1.1-2.2-1.6-4.7-1.6-7.3
					c0-2.6,0.5-4.8,1.5-6.7c1-1.8,2.2-3.3,3.8-4.5c1.5-1.2,3.2-2,4.9-2.5s3.4-0.8,4.9-0.8c3.9,0,7.1,1.4,9.6,4.2
					c2.5,2.8,3.7,6.5,3.7,10.9c0,3.5-0.5,7-1.5,10.4c6.9-3,12.3-7.6,16.2-13.8c-0.7,3.1-2.5,6.1-5.5,9.1c-3,3-6.8,5.4-11.3,7.2
					c-1.5,3.9-3.7,7.5-6.7,10.5s-6.8,5.5-11.4,7.3S344.4,160.7,338.2,160.7z M352.6,137.7c0.3-3.2,0.5-6.3,0.5-9.3
					c0-4.3-0.8-6.5-2.5-6.5c-0.8,0-1.5,0.5-1.9,1.4c-0.5,1-0.7,2-0.7,3.2C348,131.8,349.6,135.5,352.6,137.7z"/>
				<path fill="#C6515A" d="M423.1,160.7c-3.8,0-6.8-0.9-9-2.7c-2.2-1.8-3.3-4.1-3.3-6.9c0-2.4,0.4-4.8,1.3-7.4
					c0.8-2.5,1.8-5.1,2.8-7.6c0.9-2.3,1.7-4.4,2.4-6.5c0.7-2.1,1.1-4,1.1-5.7c0-2.1-0.8-3.2-2.5-3.2c-2.3,0-5.2,4.6-8.7,13.8
					c-2.8,7.3-5.4,15.5-7.8,24.6c-2.7,0.6-5,1-6.9,1.3c-1.9,0.3-4,0.4-6.1,0.4c-3.3,0-5.5-0.7-6.8-2.2c-1.3-1.5-1.9-3.5-1.9-6.1
					c0-5,1.4-11.7,4.3-20c2.9-8.4,6.1-14.8,9.9-19.1c2-2.1,5-3.7,9-4.5c4-0.9,9.3-1.3,15.7-1.3c-5.6,9.5-9.1,17.8-10.7,25h0.8
					c3.3-8.8,7.1-15.2,11.4-19.1c4.3-3.9,9.2-5.9,14.5-5.9c1.9,0,3.7,0.4,5.4,1.2c1.7,0.8,3,2.1,4,3.8c1,1.7,1.5,3.9,1.5,6.5
					c0,3.1-0.4,6.1-1.1,8.9c-0.8,2.8-1.6,5.4-2.5,8c-0.8,2.2-1.5,4.3-2.1,6.4c-0.6,2.1-0.9,4.1-0.9,6.1c0,2.7,1.3,4.1,4,4.1
					c2.1,0,4.3-1.3,6.7-3.8c2.4-2.5,4.7-6.8,7-12.9c0,2.9-0.7,5.9-2.2,8.8c-1.5,3-3.5,5.7-6.3,8.1c-2.7,2.4-6,4.4-9.8,5.9
					C432.2,159.9,427.9,160.7,423.1,160.7z"/>
				<path fill="#C6515A" d="M535.9,166.7c-7.2,0-14.5-1.4-22.1-4.1c-7.5-2.7-13.9-6.9-18.9-12.6c-4.4,3.4-9,6.2-13.9,8.2
					c-4.8,2-9.3,3.1-13.4,3.1c-7.7,0-12.9-1.6-15.8-4.8c-2-2.2-3-5.1-3-8.7c0-3.8,1.3-9.5,3.8-17.1c2.5-7.6,5.1-13.4,7.8-17.5
					c1.6-2.2,4.3-3.6,8.1-4.3c3.8-0.7,8.7-1.1,14.6-1.1c-1.2,3.3-2.7,7.3-4.3,12.2c-1.7,4.9-3.1,9.8-4.4,14.8c-1.3,5-1.9,9-1.9,12.2
					c0,1.5,0.1,2.9,0.5,4.1c0.3,1.2,1,2.2,2,3c1,0.7,2.7,1.1,4.9,1.1c3.5,0,8.1-2.1,13.7-6.4c-4.5-5.8-6.8-12.6-6.8-20.3
					c0-4.3,0.7-7.8,2.3-10.7c1.5-2.8,3.5-4.9,5.9-6.3c2.4-1.4,4.9-2.1,7.6-2.1c3,0,5.4,1.1,7.2,3.3c1.8,2.2,2.7,5.2,2.7,9
					c0,4.8-1.4,9.5-4.3,14.2s-6.6,8.9-11,12.6c3.1,3.9,6.9,7,11.3,9.5c4.4,2.5,9,4.3,13.8,5.5c4.8,1.2,9.4,1.8,13.7,1.8
					c8.5,0,16.1-1.2,22.9-3.5c6.8-2.4,12.5-5.6,17.2-9.7c4.7-4.1,8.4-8.9,10.8-14.3c2.5-5.4,3.7-11.2,3.7-17.3
					c0-6.4-1.4-12.3-4.2-17.6c-2.8-5.4-6.5-10-11.1-13.8c-4.6-3.9-9.8-6.8-15.5-8.7c6.2,2,11.7,4.8,16.6,8.6
					c4.8,3.8,8.7,8.3,11.5,13.6c2.8,5.3,4.2,11.3,4.2,18c0,6.3-1.3,12.3-3.9,17.9c-2.6,5.6-6.3,10.5-11.1,14.8
					c-4.8,4.2-10.7,7.6-17.7,10C552.5,165.5,544.6,166.7,535.9,166.7z M474.1,103.1c-2.5,0-4.4-0.5-5.9-1.4s-2.5-2-3.1-3.4
					c-0.6-1.4-0.9-2.8-0.9-4.3c0-1.8,0.5-3.7,1.5-5.6c1-1.9,2.5-3.4,4.6-4.6c2.1-1.2,4.8-1.8,8.1-1.8c2.4,0,4.4,0.5,5.8,1.4
					c1.4,0.9,2.4,2.1,3,3.5c0.6,1.4,0.9,2.9,0.9,4.4c0,1.6-0.5,3.4-1.4,5.2c-0.9,1.8-2.4,3.4-4.4,4.7
					C480.3,102.4,477.6,103.1,474.1,103.1z M496,146.9c2.7-2.2,5.1-4.7,7.4-7.5c2.3-2.8,4.1-5.7,5.5-8.8c1.4-3.1,2.1-6.1,2.1-9.1
					c0-3.3-0.8-5.9-2.3-7.8c-1.5-1.9-3.5-2.9-6-2.9c-1.8,0-3.7,0.6-5.7,1.9c-2,1.3-3.6,3.2-5,5.9c-1.4,2.6-2,5.9-2,9.8
					C490,135.3,492,141.5,496,146.9z"/>
			</g>
		</g>
	</g>
</g>
</svg>
